<svg width="24" height="24" viewBox="0 0 24 24" fill="none" xmlns="http://www.w3.org/2000/svg">
<circle cx="7.45388" cy="4.91206" r="2.04397" stroke="white" stroke-width="1.4"/>
<path fill-rule="evenodd" clip-rule="evenodd" d="M9.37493 5.61205C9.45452 5.39369 9.49794 5.15794 9.49794 4.91206C9.49794 4.66616 9.45452 4.43041 9.37493 4.21205H22V5.61205H9.37493ZM5.53301 5.61205H2.00024V4.21205H5.53301C5.45342 4.43041 5.41 4.66616 5.41 4.91206C5.41 5.15794 5.45342 5.39369 5.53301 5.61205Z" fill="white"/>
<circle cx="7.45388" cy="19.0879" r="2.04397" stroke="white" stroke-width="1.4"/>
<path fill-rule="evenodd" clip-rule="evenodd" d="M9.37493 19.7879C9.45452 19.5696 9.49794 19.3338 9.49794 19.088C9.49794 18.8421 9.45452 18.6063 9.37493 18.3879H22V19.7879H9.37493ZM5.53301 19.7879H2.00024V18.3879H5.53301C5.45342 18.6063 5.41 18.8421 5.41 19.088C5.41 19.3338 5.45342 19.5696 5.53301 19.7879Z" fill="white"/>
<circle cx="16.544" cy="12" r="2.04397" stroke="white" stroke-width="1.4"/>
<path fill-rule="evenodd" clip-rule="evenodd" d="M18.4649 12.7C18.5445 12.4816 18.5879 12.2459 18.5879 12C18.5879 11.7541 18.5445 11.5184 18.4649 11.3H22V12.7H18.4649ZM14.623 12.7H2.00024V11.3H14.623C14.5434 11.5184 14.5 11.7541 14.5 12C14.5 12.2459 14.5434 12.4816 14.623 12.7Z" fill="white"/>
</svg>
