<svg width="24" height="24" viewBox="0 0 24 24" fill="none" xmlns="http://www.w3.org/2000/svg">
<path d="M8.5 7C7.67159 7 7 7.67159 7 8.5C7 9.32841 7.67159 10 8.5 10C9.32841 10 10 9.32841 10 8.5C10 7.67159 9.32855 7 8.5 7V7Z" stroke="black" stroke-width="1.4"/>
<path fill-rule="evenodd" clip-rule="evenodd" d="M12 11L11.0582 12.0464L4.26 19.6L3 21H4.88351H19.1165H21L19.74 19.6L12.9418 12.0464L12 11ZM12 13.0928L6.14351 19.6H17.8565L12 13.0928Z" fill="black"/>
<path fill-rule="evenodd" clip-rule="evenodd" d="M19.6 4.4H4.4V19.6H19.6V4.4ZM4.4 3H3V4.4V19.6V21H4.4H19.6H21V19.6V4.4V3H19.6H4.4Z" fill="black"/>
</svg>
