<svg width="24" height="24" viewBox="0 0 24 24" fill="none" xmlns="http://www.w3.org/2000/svg">
<path d="M12 12.3C13.1046 12.3 14 11.4046 14 10.3C14 9.19543 13.1046 8.3 12 8.3C10.8954 8.3 10 9.19543 10 10.3C10 11.4046 10.8954 12.3 12 12.3Z" stroke="white" stroke-width="1.4" stroke-linecap="round" stroke-linejoin="round"/>
<path d="M12.0002 2C9.79972 2 7.68939 2.87412 6.13344 4.43007C4.57749 5.98603 3.70337 8.09635 3.70337 10.2968C3.70337 12.259 4.12028 13.5429 5.25902 14.9637L12.0002 22.742L18.7413 14.9637C19.88 13.5429 20.297 12.259 20.297 10.2968C20.297 8.09635 19.4228 5.98603 17.8669 4.43007C16.3109 2.87412 14.2006 2 12.0002 2Z" stroke="white" stroke-width="1.4" stroke-linecap="round" stroke-linejoin="round"/>
</svg>
