<svg width="26" height="26" viewBox="0 0 26 26" fill="none" xmlns="http://www.w3.org/2000/svg">
<path fill-rule="evenodd" clip-rule="evenodd" d="M15.1952 9.74429C15.5952 10.0527 15.9285 10.4434 16.1697 10.8911L20.1543 6.90646L19.0937 5.8458L15.1952 9.74429ZM16.5817 12.25C16.5926 12.3636 16.5981 12.4788 16.5981 12.5952C16.5981 12.9992 16.5315 13.3875 16.4088 13.75L26.0001 13.75V12.25L16.5817 12.25ZM15.8511 14.7903C15.5426 15.1903 15.1519 15.5236 14.7042 15.7647L19.0956 20.1561L20.1562 19.0954L15.8511 14.7903ZM13.7501 16.1148C13.5083 16.166 13.2574 16.193 13.0003 16.193C12.743 16.193 12.4921 16.166 12.2501 16.1147L12.2501 26H13.7501L13.7501 16.1148ZM11.2962 15.7646C10.8485 15.5234 10.4578 15.1901 10.1494 14.7901L5.84402 19.0954L6.90468 20.1561L11.2962 15.7646ZM9.59185 13.75C9.46909 13.3875 9.40252 12.9992 9.40252 12.5952C9.40252 12.4788 9.40806 12.3636 9.41887 12.25L0.00012207 12.25V13.75L9.59185 13.75ZM9.8308 10.8913L5.84592 6.90646L6.90658 5.8458L10.8052 9.74445C10.4052 10.0529 10.072 10.4436 9.8308 10.8913ZM12.2501 9.07577C12.4921 9.02445 12.743 8.99745 13.0003 8.99745C13.2574 8.99745 13.5083 9.02442 13.7501 9.0757L13.7501 0H12.2501L12.2501 9.07577Z" fill="white"/>
</svg>
