<svg width="26" height="26" viewBox="0 0 26 26" fill="none" xmlns="http://www.w3.org/2000/svg">
<path fill-rule="evenodd" clip-rule="evenodd" d="M15.195 9.74429C15.5951 10.0527 15.9284 10.4434 16.1696 10.8911L20.1542 6.90646L19.0935 5.8458L15.195 9.74429ZM16.5816 12.25C16.5924 12.3636 16.598 12.4788 16.598 12.5952C16.598 12.9992 16.5314 13.3875 16.4086 13.75L26 13.75V12.25L16.5816 12.25ZM15.851 14.7903C15.5425 15.1903 15.1518 15.5236 14.7041 15.7647L19.0954 20.1561L20.1561 19.0954L15.851 14.7903ZM13.75 16.1148C13.5081 16.166 13.2573 16.193 13.0002 16.193C12.7429 16.193 12.492 16.166 12.25 16.1147L12.25 26H13.75L13.75 16.1148ZM11.2961 15.7646C10.8484 15.5234 10.4577 15.1901 10.1492 14.7901L5.8439 19.0954L6.90456 20.1561L11.2961 15.7646ZM9.59173 13.75C9.46897 13.3875 9.4024 12.9992 9.4024 12.5952C9.4024 12.4788 9.40794 12.3636 9.41875 12.25L0 12.25V13.75L9.59173 13.75ZM9.83067 10.8913L5.8458 6.90646L6.90646 5.8458L10.8051 9.74445C10.4051 10.0529 10.0719 10.4436 9.83067 10.8913ZM12.25 9.07577C12.492 9.02445 12.7429 8.99745 13.0002 8.99745C13.2573 8.99745 13.5081 9.02442 13.75 9.0757L13.75 0H12.25L12.25 9.07577Z" fill="black"/>
</svg>
