<svg width="26" height="26" viewBox="0 0 26 26" fill="none" xmlns="http://www.w3.org/2000/svg">
<path fill-rule="evenodd" clip-rule="evenodd" d="M15.1947 9.74429C15.5947 10.0527 15.928 10.4434 16.1692 10.8911L20.1538 6.90646L19.0932 5.8458L15.1947 9.74429ZM16.5812 12.25C16.5921 12.3636 16.5976 12.4788 16.5976 12.5952C16.5976 12.9992 16.531 13.3875 16.4083 13.75L25.9996 13.75V12.25L16.5812 12.25ZM15.8506 14.7903C15.5421 15.1903 15.1514 15.5236 14.7037 15.7647L19.0951 20.1561L20.1557 19.0954L15.8506 14.7903ZM13.7496 16.1148C13.5078 16.166 13.2569 16.193 12.9998 16.193C12.7426 16.193 12.4916 16.166 12.2496 16.1147L12.2496 26H13.7496L13.7496 16.1148ZM11.2957 15.7646C10.848 15.5234 10.4573 15.1901 10.1489 14.7901L5.84353 19.0954L6.90419 20.1561L11.2957 15.7646ZM9.59136 13.75C9.4686 13.3875 9.40204 12.9992 9.40204 12.5952C9.40204 12.4788 9.40757 12.3636 9.41839 12.25L-0.000366211 12.25V13.75L9.59136 13.75ZM9.83031 10.8913L5.84543 6.90646L6.90609 5.8458L10.8047 9.74445C10.4048 10.0529 10.0715 10.4436 9.83031 10.8913ZM12.2496 9.07577C12.4916 9.02445 12.7426 8.99745 12.9998 8.99745C13.2569 8.99745 13.5078 9.02442 13.7496 9.0757L13.7496 0H12.2496L12.2496 9.07577Z" fill="#949494"/>
</svg>
