<svg width="26" height="26" viewBox="0 0 26 26" fill="none" xmlns="http://www.w3.org/2000/svg">
<mask id="path-1-inside-1_811_9895" fill="white">
<path fill-rule="evenodd" clip-rule="evenodd" d="M12.9107 24.5C19.3078 24.5 24.4937 19.3513 24.4937 13C24.4937 6.64873 19.3078 1.5 12.9107 1.5C12.3671 1.5 11.8323 1.53717 11.3087 1.6091C10.9753 1.65489 10.9987 2.15839 11.3235 2.2461C14.8835 3.20731 17.5013 6.43919 17.5013 10.2781C17.5013 14.8748 13.7481 18.6011 9.11825 18.6011C6.19501 18.6011 3.62124 17.1156 2.12099 14.8635C1.93515 14.5845 1.45151 14.7209 1.51131 15.0507C2.48541 20.4236 7.21857 24.5 12.9107 24.5Z"/>
</mask>
<path d="M2.12099 14.8635L0.955833 15.6396L2.12099 14.8635ZM1.51131 15.0507L0.133767 15.3005L1.51131 15.0507ZM23.0937 13C23.0937 18.5686 18.5441 23.1 12.9107 23.1V25.9C20.0715 25.9 25.8937 20.134 25.8937 13H23.0937ZM12.9107 2.9C18.5441 2.9 23.0937 7.4314 23.0937 13H25.8937C25.8937 5.86605 20.0715 0.1 12.9107 0.1V2.9ZM11.4992 2.99608C11.9599 2.9328 12.431 2.9 12.9107 2.9V0.1C12.3032 0.1 11.7047 0.14155 11.1181 0.222127L11.4992 2.99608ZM10.9586 3.5977C13.9293 4.39981 16.1013 7.09387 16.1013 10.2781H18.9013C18.9013 5.78452 15.8377 2.01481 11.6885 0.894502L10.9586 3.5977ZM16.1013 10.2781C16.1013 14.0921 12.9844 17.2011 9.11825 17.2011V20.0011C14.5118 20.0011 18.9013 15.6575 18.9013 10.2781H16.1013ZM9.11825 17.2011C6.68005 17.2011 4.53621 15.9639 3.28614 14.0873L0.955833 15.6396C2.70626 18.2673 5.70997 20.0011 9.11825 20.0011V17.2011ZM12.9107 23.1C7.90031 23.1 3.74307 19.5126 2.88885 14.801L0.133767 15.3005C1.22774 21.3345 6.53683 25.9 12.9107 25.9V23.1ZM3.28614 14.0873C2.78534 13.3355 1.92621 13.2089 1.32662 13.3864C0.696813 13.5728 -0.0563914 14.2516 0.133767 15.3005L2.88885 14.801C2.94136 15.0906 2.87495 15.4085 2.68772 15.6661C2.51806 15.8996 2.29888 16.0187 2.12144 16.0712C1.79519 16.1678 1.27079 16.1124 0.955833 15.6396L3.28614 14.0873ZM11.1181 0.222127C10.6602 0.285037 10.2552 0.52725 9.98851 0.89762C9.73955 1.24341 9.65906 1.63051 9.67008 1.95884C9.69113 2.58604 10.0853 3.3619 10.9586 3.5977L11.6885 0.894502C12.237 1.0426 12.457 1.52286 12.4685 1.86492C12.4747 2.05069 12.4306 2.29785 12.2608 2.53361C12.0734 2.79396 11.7905 2.95606 11.4992 2.99608L11.1181 0.222127Z" fill="white" mask="url(#path-1-inside-1_811_9895)"/>
</svg>
