<svg width="26" height="26" viewBox="0 0 26 26" fill="none" xmlns="http://www.w3.org/2000/svg">
<path d="M24.3063 14.6395V15.3395H24.9332L25.0021 14.7163L24.3063 14.6395ZM1.69315 14.6395L0.997388 14.7163L1.06624 15.3395H1.69315V14.6395ZM24.3063 13.9395H1.69315V15.3395H24.3063V13.9395ZM2.38892 14.5626C2.34589 14.1732 2.32378 13.7773 2.32378 13.376H0.923779C0.923779 13.8288 0.948732 14.276 0.997388 14.7163L2.38892 14.5626ZM2.32378 13.376C2.32378 7.47979 7.10357 2.7 12.9997 2.7V1.3C6.33037 1.3 0.923779 6.70659 0.923779 13.376H2.32378ZM12.9997 2.7C18.8959 2.7 23.6757 7.47979 23.6757 13.376H25.0757C25.0757 6.70659 19.6691 1.3 12.9997 1.3V2.7ZM23.6757 13.376C23.6757 13.7773 23.6536 14.1732 23.6106 14.5626L25.0021 14.7163C25.0508 14.276 25.0757 13.8288 25.0757 13.376H23.6757Z" fill="#949494"/>
<path d="M0 14.6395L26 14.6395" stroke="#949494" stroke-width="1.4"/>
<path d="M3.71851 19.1895H22.2816" stroke="#949494" stroke-width="1.4"/>
<path d="M6.44409 23.7395H19.5558" stroke="#949494" stroke-width="1.4"/>
</svg>
