<svg width="342" height="339" viewBox="0 0 342 339" fill="none" xmlns="http://www.w3.org/2000/svg">
<mask id="path-1-inside-1_417_50295" fill="white">
<path fill-rule="evenodd" clip-rule="evenodd" d="M171 26C185.359 26 197 14.3594 197 0H342V339H0V0H145C145 14.3594 156.641 26 171 26Z"/>
</mask>
<path fill-rule="evenodd" clip-rule="evenodd" d="M171 26C185.359 26 197 14.3594 197 0H342V339H0V0H145C145 14.3594 156.641 26 171 26Z" fill="url(#paint0_linear_417_50295)"/>
<path d="M197 0V-0.8H196.2V0H197ZM342 0H342.8V-0.8H342V0ZM342 339V339.8H342.8V339H342ZM0 339H-0.8V339.8H0V339ZM0 0V-0.8H-0.8V0H0ZM145 0H145.8V-0.8H145V0ZM196.2 0C196.2 13.9176 184.918 25.2 171 25.2V26.8C185.801 26.8 197.8 14.8012 197.8 0H196.2ZM197 0.8H342V-0.8H197V0.8ZM341.2 0V339H342.8V0H341.2ZM342 338.2H0V339.8H342V338.2ZM0.8 339V0H-0.8V339H0.8ZM0 0.8H145V-0.8H0V0.8ZM171 25.2C157.082 25.2 145.8 13.9176 145.8 0H144.2C144.2 14.8012 156.199 26.8 171 26.8V25.2Z" fill="url(#paint1_linear_417_50295)" fill-opacity="0.4" mask="url(#path-1-inside-1_417_50295)"/>
<defs>
<linearGradient id="paint0_linear_417_50295" x1="303.937" y1="0" x2="303.937" y2="339" gradientUnits="userSpaceOnUse">
<stop stop-color="#9E9E9E" stop-opacity="0.2"/>
<stop offset="1" stop-color="white" stop-opacity="0.7"/>
</linearGradient>
<linearGradient id="paint1_linear_417_50295" x1="171" y1="0" x2="171" y2="339" gradientUnits="userSpaceOnUse">
<stop stop-color="white" stop-opacity="0.85"/>
<stop offset="1" stop-color="white" stop-opacity="0"/>
</linearGradient>
</defs>
</svg>
