<svg width="18" height="18" viewBox="0 0 18 18" fill="none" xmlns="http://www.w3.org/2000/svg">
<path d="M5.5 4C4.67159 4 4 4.67159 4 5.5C4 6.32841 4.67159 7 5.5 7C6.32841 7 7 6.32841 7 5.5C7 4.67159 6.32855 4 5.5 4V4Z" stroke="#616161" stroke-width="1.4"/>
<path fill-rule="evenodd" clip-rule="evenodd" d="M9 8L8.05825 9.04639L1.26 16.6L0 18H1.88351H16.1165H18L16.74 16.6L9.94175 9.04639L9 8ZM9 10.0928L3.14351 16.6H14.8565L9 10.0928Z" fill="#616161"/>
<path fill-rule="evenodd" clip-rule="evenodd" d="M16.6 1.4H1.4V16.6H16.6V1.4ZM1.4 0H0V1.4V16.6V18H1.4H16.6H18V16.6V1.4V0H16.6H1.4Z" fill="#616161"/>
</svg>
