<svg width="26" height="26" viewBox="0 0 26 26" fill="none" xmlns="http://www.w3.org/2000/svg">
<path d="M13 13.325C14.1046 13.325 15 12.355 15 11.1584C15 9.96175 14.1046 8.9917 13 8.9917C11.8954 8.9917 11 9.96175 11 11.1584C11 12.355 11.8954 13.325 13 13.325Z" stroke="#777777" stroke-width="1.4" stroke-linecap="round" stroke-linejoin="round"/>
<path d="M13.0002 2.1665C10.6163 2.1665 8.33016 3.11347 6.64454 4.79908C4.95893 6.4847 4.01196 8.77088 4.01196 11.1547C4.01196 13.2804 4.46362 14.6713 5.69725 16.2106L13.0002 24.637L20.3031 16.2106C21.5367 14.6713 21.9883 13.2804 21.9883 11.1547C21.9883 8.77088 21.0414 6.4847 19.3558 4.79908C17.6702 3.11347 15.384 2.1665 13.0002 2.1665Z" stroke="#777777" stroke-width="1.4" stroke-linecap="round" stroke-linejoin="round"/>
</svg>
