<svg width="26" height="26" viewBox="0 0 26 26" fill="none" xmlns="http://www.w3.org/2000/svg">
<circle cx="13.0001" cy="13" r="11" stroke="white" stroke-width="1.4"/>
<path d="M13.0735 18.8078V19.5079L13.0842 19.5077L13.0735 18.8078ZM17.3755 12.3346L18.0249 12.0733L17.8484 11.6346H17.3755V12.3346ZM8.62468 12.3346V11.6346H8.15183L7.9753 12.0733L8.62468 12.3346ZM12.9267 18.8078L12.916 19.5078H12.9267V18.8078ZM17.0147 14.0938C17.0147 16.29 15.251 18.0745 13.0628 18.1079L13.0842 19.5077C16.0359 19.4627 18.4147 17.0561 18.4147 14.0938H17.0147ZM16.7261 12.5959C16.912 13.0579 17.0147 13.563 17.0147 14.0938H18.4147C18.4147 13.3809 18.2765 12.6985 18.0249 12.0733L16.7261 12.5959ZM8.62468 13.0346H17.3755V11.6346H8.62468V13.0346ZM8.98552 14.0938C8.98552 13.563 9.08818 13.0579 9.27407 12.5959L7.9753 12.0733C7.72367 12.6985 7.58552 13.3809 7.58552 14.0938H8.98552ZM12.9373 18.1079C10.7492 18.0745 8.98552 16.29 8.98552 14.0938H7.58552C7.58552 17.0561 9.96425 19.4627 12.916 19.5077L12.9373 18.1079ZM13.0735 18.1078H12.9267V19.5078H13.0735V18.1078Z" fill="white"/>
<path d="M7.94104 7.41789L10.3374 8.56547L7.94104 9.76158" stroke="white" stroke-width="1.4"/>
<path d="M17.9324 7.41789L15.536 8.56547L17.9324 9.76158" stroke="white" stroke-width="1.4"/>
</svg>
