<svg width="26" height="27" viewBox="0 0 26 27" fill="none" xmlns="http://www.w3.org/2000/svg">
<circle cx="13" cy="13.4486" r="11" stroke="black" stroke-width="1.4"/>
<path d="M13.0734 19.2564V19.9565L13.0841 19.9563L13.0734 19.2564ZM17.3754 12.7832L18.0248 12.5219L17.8482 12.0832H17.3754V12.7832ZM8.62456 12.7832V12.0832H8.15171L7.97517 12.5219L8.62456 12.7832ZM12.9265 19.2564L12.9159 19.9564H12.9265V19.2564ZM17.0145 14.5424C17.0145 16.7386 15.2508 18.5231 13.0627 18.5565L13.0841 19.9563C16.0358 19.9113 18.4145 17.5047 18.4145 14.5424H17.0145ZM16.726 13.0445C16.9119 13.5065 17.0145 14.0116 17.0145 14.5424H18.4145C18.4145 13.8295 18.2764 13.1471 18.0248 12.5219L16.726 13.0445ZM8.62456 13.4832H17.3754V12.0832H8.62456V13.4832ZM8.9854 14.5424C8.9854 14.0116 9.08805 13.5065 9.27395 13.0445L7.97517 12.5219C7.72355 13.1471 7.5854 13.8295 7.5854 14.5424H8.9854ZM12.9372 18.5565C10.7491 18.5231 8.9854 16.7386 8.9854 14.5424H7.5854C7.5854 17.5047 9.96413 19.9113 12.9159 19.9563L12.9372 18.5565ZM13.0734 18.5564H12.9265V19.9564H13.0734V18.5564Z" fill="black"/>
<path d="M7.94092 7.86649L10.3373 9.01407L7.94092 10.2102" stroke="black" stroke-width="1.4"/>
<path d="M17.9323 7.86649L15.5359 9.01407L17.9323 10.2102" stroke="black" stroke-width="1.4"/>
</svg>
