<svg width="26" height="26" viewBox="0 0 26 26" fill="none" xmlns="http://www.w3.org/2000/svg">
<circle cx="13" cy="13" r="11" stroke="#949494" stroke-width="1.4"/>
<path d="M13.0734 18.8078V19.5079L13.0841 19.5077L13.0734 18.8078ZM17.3754 12.3346L18.0248 12.0733L17.8482 11.6346H17.3754V12.3346ZM8.62456 12.3346V11.6346H8.15171L7.97517 12.0733L8.62456 12.3346ZM12.9265 18.8078L12.9159 19.5078H12.9265V18.8078ZM17.0145 14.0938C17.0145 16.29 15.2508 18.0745 13.0627 18.1079L13.0841 19.5077C16.0358 19.4627 18.4145 17.0561 18.4145 14.0938H17.0145ZM16.726 12.5959C16.9119 13.0579 17.0145 13.563 17.0145 14.0938H18.4145C18.4145 13.3809 18.2764 12.6985 18.0248 12.0733L16.726 12.5959ZM8.62456 13.0346H17.3754V11.6346H8.62456V13.0346ZM8.9854 14.0938C8.9854 13.563 9.08805 13.0579 9.27395 12.5959L7.97517 12.0733C7.72355 12.6985 7.5854 13.3809 7.5854 14.0938H8.9854ZM12.9372 18.1079C10.7491 18.0745 8.9854 16.29 8.9854 14.0938H7.5854C7.5854 17.0561 9.96413 19.4627 12.9159 19.5077L12.9372 18.1079ZM13.0734 18.1078H12.9265V19.5078H13.0734V18.1078Z" fill="#949494"/>
<path d="M7.94092 7.41789L10.3373 8.56547L7.94092 9.76158" stroke="#949494" stroke-width="1.4"/>
<path d="M17.9323 7.41789L15.5359 8.56547L17.9323 9.76158" stroke="#949494" stroke-width="1.4"/>
</svg>
