<svg width="26" height="26" viewBox="0 0 26 26" fill="none" xmlns="http://www.w3.org/2000/svg">
<circle cx="13" cy="13" r="11" stroke="black" stroke-width="1.4"/>
<path d="M4.80774 11.6787V13" stroke="black" stroke-width="1.4"/>
<path d="M18.9042 11.6787V13" stroke="black" stroke-width="1.4"/>
<path d="M7.09583 11.6787V13" stroke="black" stroke-width="1.4"/>
<path d="M21.1923 11.6787V13" stroke="black" stroke-width="1.4"/>
<path fill-rule="evenodd" clip-rule="evenodd" d="M16.9236 9.14255C16.8748 9.4066 16.6433 9.6066 16.3652 9.6066C16.087 9.6066 15.8555 9.4066 15.8067 9.14255L14.3999 9.14255C14.4539 10.1811 15.3131 11.0066 16.3652 11.0066C17.4172 11.0066 18.2764 10.1811 18.3304 9.14255L16.9236 9.14255Z" fill="black"/>
<path fill-rule="evenodd" clip-rule="evenodd" d="M10.193 9.14255C10.1442 9.4066 9.91275 9.6066 9.63457 9.6066C9.35639 9.6066 9.12492 9.4066 9.0761 9.14255L7.66931 9.14255C7.72334 10.1811 8.58255 11.0066 9.63457 11.0066C10.6866 11.0066 11.5458 10.1811 11.5998 9.14255L10.193 9.14255Z" fill="black"/>
<path fill-rule="evenodd" clip-rule="evenodd" d="M16.1389 14.0284C15.6369 15.2692 14.4206 16.1445 12.9999 16.1445C11.5791 16.1445 10.3628 15.2692 9.8608 14.0284H8.38501C8.94099 16.0553 10.7965 17.5445 12.9999 17.5445C15.2032 17.5445 17.0587 16.0553 17.6147 14.0284H16.1389Z" fill="black"/>
</svg>
