<svg width="26" height="27" viewBox="0 0 26 27" fill="none" xmlns="http://www.w3.org/2000/svg">
<circle cx="13" cy="13.3346" r="11" stroke="#949494" stroke-width="1.4"/>
<path d="M4.80774 12.0133V13.3346" stroke="#949494" stroke-width="1.4"/>
<path d="M18.9042 12.0133V13.3346" stroke="#949494" stroke-width="1.4"/>
<path d="M7.09583 12.0133V13.3346" stroke="#949494" stroke-width="1.4"/>
<path d="M21.1923 12.0133V13.3346" stroke="#949494" stroke-width="1.4"/>
<path fill-rule="evenodd" clip-rule="evenodd" d="M16.9236 9.47716C16.8748 9.74121 16.6433 9.9412 16.3652 9.9412C16.087 9.9412 15.8555 9.74121 15.8067 9.47716L14.3999 9.47716C14.4539 10.5157 15.3131 11.3412 16.3652 11.3412C17.4172 11.3412 18.2764 10.5157 18.3304 9.47716L16.9236 9.47716Z" fill="#949494"/>
<path fill-rule="evenodd" clip-rule="evenodd" d="M10.193 9.47716C10.1442 9.74121 9.91275 9.9412 9.63457 9.9412C9.35639 9.9412 9.12492 9.74121 9.0761 9.47716L7.66931 9.47716C7.72334 10.5157 8.58255 11.3412 9.63457 11.3412C10.6866 11.3412 11.5458 10.5157 11.5998 9.47716L10.193 9.47716Z" fill="#949494"/>
<path fill-rule="evenodd" clip-rule="evenodd" d="M16.1389 14.363C15.6369 15.6038 14.4206 16.4791 12.9999 16.4791C11.5791 16.4791 10.3628 15.6038 9.8608 14.363H8.38501C8.94099 16.3899 10.7965 17.8791 12.9999 17.8791C15.2032 17.8791 17.0587 16.3899 17.6147 14.363H16.1389Z" fill="#949494"/>
</svg>
