<svg width="26" height="26" viewBox="0 0 26 26" fill="none" xmlns="http://www.w3.org/2000/svg">
<circle cx="12.9999" cy="13" r="11" stroke="white" stroke-width="1.4"/>
<path d="M4.80762 11.6787V13" stroke="white" stroke-width="1.4"/>
<path d="M18.9041 11.6787V13" stroke="white" stroke-width="1.4"/>
<path d="M7.0957 11.6787V13" stroke="white" stroke-width="1.4"/>
<path d="M21.1921 11.6787V13" stroke="white" stroke-width="1.4"/>
<path fill-rule="evenodd" clip-rule="evenodd" d="M16.9235 9.14255C16.8747 9.4066 16.6432 9.6066 16.365 9.6066C16.0869 9.6066 15.8554 9.4066 15.8066 9.14255L14.3998 9.14255C14.4538 10.1811 15.313 11.0066 16.365 11.0066C17.4171 11.0066 18.2763 10.1811 18.3303 9.14255L16.9235 9.14255Z" fill="white"/>
<path fill-rule="evenodd" clip-rule="evenodd" d="M10.1929 9.14255C10.1441 9.4066 9.91263 9.6066 9.63445 9.6066C9.35627 9.6066 9.1248 9.4066 9.07598 9.14255L7.66919 9.14255C7.72322 10.1811 8.58243 11.0066 9.63445 11.0066C10.6865 11.0066 11.5457 10.1811 11.5997 9.14255L10.1929 9.14255Z" fill="white"/>
<path fill-rule="evenodd" clip-rule="evenodd" d="M16.1388 14.0284C15.6368 15.2692 14.4205 16.1445 12.9997 16.1445C11.579 16.1445 10.3627 15.2692 9.86068 14.0284H8.38489C8.94087 16.0553 10.7964 17.5445 12.9997 17.5445C15.2031 17.5445 17.0586 16.0553 17.6146 14.0284H16.1388Z" fill="white"/>
</svg>
