<svg width="26" height="26" viewBox="0 0 26 26" fill="none" xmlns="http://www.w3.org/2000/svg">
<circle cx="13.0001" cy="13" r="11" stroke="white" stroke-width="1.4"/>
<path d="M13.0735 18.9218V19.6219L13.0842 19.6217L13.0735 18.9218ZM17.3755 12.4486L18.0249 12.1873L17.8484 11.7486H17.3755V12.4486ZM8.62468 12.4486V11.7486H8.15183L7.9753 12.1873L8.62468 12.4486ZM12.9267 18.9218L12.916 19.6218H12.9267V18.9218ZM17.0147 14.2078C17.0147 16.404 15.251 18.1885 13.0628 18.2219L13.0842 19.6217C16.0359 19.5766 18.4147 17.1701 18.4147 14.2078H17.0147ZM16.7261 12.7099C16.912 13.1718 17.0147 13.677 17.0147 14.2078H18.4147C18.4147 13.4949 18.2765 12.8125 18.0249 12.1873L16.7261 12.7099ZM8.62468 13.1486H17.3755V11.7486H8.62468V13.1486ZM8.98552 14.2078C8.98552 13.677 9.08818 13.1718 9.27407 12.7099L7.9753 12.1873C7.72367 12.8125 7.58552 13.4949 7.58552 14.2078H8.98552ZM12.9373 18.2219C10.7492 18.1885 8.98552 16.404 8.98552 14.2078H7.58552C7.58552 17.1701 9.96425 19.5766 12.916 19.6217L12.9373 18.2219ZM13.0735 18.2218H12.9267V19.6218H13.0735V18.2218Z" fill="white"/>
<path d="M11.2423 9.33376L9.76393 7.85538L8.28555 9.33376" stroke="white" stroke-width="1.4"/>
<path d="M17.7147 9.33376L16.2363 7.85538L14.758 9.33376" stroke="white" stroke-width="1.4"/>
</svg>
