<svg width="26" height="26" viewBox="0 0 26 26" fill="none" xmlns="http://www.w3.org/2000/svg">
<circle cx="13" cy="13" r="11" stroke="black" stroke-width="1.4"/>
<path d="M13.0734 18.9218V19.6219L13.0841 19.6217L13.0734 18.9218ZM17.3754 12.4486L18.0248 12.1873L17.8482 11.7486H17.3754V12.4486ZM8.62456 12.4486V11.7486H8.15171L7.97517 12.1873L8.62456 12.4486ZM12.9265 18.9218L12.9159 19.6218H12.9265V18.9218ZM17.0145 14.2078C17.0145 16.404 15.2508 18.1885 13.0627 18.2219L13.0841 19.6217C16.0358 19.5766 18.4145 17.1701 18.4145 14.2078H17.0145ZM16.726 12.7099C16.9119 13.1718 17.0145 13.677 17.0145 14.2078H18.4145C18.4145 13.4949 18.2764 12.8125 18.0248 12.1873L16.726 12.7099ZM8.62456 13.1486H17.3754V11.7486H8.62456V13.1486ZM8.9854 14.2078C8.9854 13.677 9.08805 13.1718 9.27395 12.7099L7.97517 12.1873C7.72355 12.8125 7.5854 13.4949 7.5854 14.2078H8.9854ZM12.9372 18.2219C10.7491 18.1885 8.9854 16.404 8.9854 14.2078H7.5854C7.5854 17.1701 9.96413 19.5766 12.9159 19.6217L12.9372 18.2219ZM13.0734 18.2218H12.9265V19.6218H13.0734V18.2218Z" fill="black"/>
<path d="M11.2422 9.33376L9.76381 7.85538L8.28543 9.33376" stroke="black" stroke-width="1.4"/>
<path d="M17.7146 9.33376L16.2362 7.85538L14.7578 9.33376" stroke="black" stroke-width="1.4"/>
</svg>
