<svg width="26" height="26" viewBox="0 0 26 26" fill="none" xmlns="http://www.w3.org/2000/svg">
<mask id="path-1-inside-1_811_9922" fill="white">
<path fill-rule="evenodd" clip-rule="evenodd" d="M17.99 21.0485H20.3447C23.4678 21.0485 25.9997 18.5166 25.9997 15.3935C25.9997 12.8398 24.307 10.6815 21.9825 9.97928C21.5349 8.12638 19.8659 6.75 17.8755 6.75C17.3244 6.75 16.7979 6.85552 16.3152 7.04746C15.328 4.95106 13.1962 3.5 10.7255 3.5C7.72665 3.5 5.22709 5.6377 4.66753 8.47238C1.97445 9.23126 0.000488281 11.706 0.000488281 14.6418C0.000488281 18.1814 2.8699 21.0508 6.40949 21.0508H11.8618C12.1308 21.0508 12.396 21.0342 12.6563 21.002C12.8947 21.0327 13.1377 21.0485 13.3844 21.0485H17.761C17.799 21.0495 17.8372 21.05 17.8755 21.05C17.9138 21.05 17.952 21.0495 17.99 21.0485Z"/>
</mask>
<path d="M17.99 21.0485V19.6485H17.9714L17.9528 19.649L17.99 21.0485ZM21.9825 9.97928L20.6216 10.308L20.8099 11.0876L21.5776 11.3195L21.9825 9.97928ZM16.3152 7.04746L15.0486 7.64389L15.6093 8.83472L16.8325 8.34839L16.3152 7.04746ZM4.66753 8.47238L5.04724 9.81991L5.87457 9.58678L6.04103 8.74351L4.66753 8.47238ZM12.6563 21.002L12.8348 19.6135L12.6597 19.591L12.4845 19.6126L12.6563 21.002ZM17.761 21.0485L17.7982 19.649L17.7796 19.6485H17.761V21.0485ZM17.99 22.4485H20.3447V19.6485H17.99V22.4485ZM20.3447 22.4485C24.241 22.4485 27.3997 19.2898 27.3997 15.3935H24.5997C24.5997 17.7434 22.6946 19.6485 20.3447 19.6485V22.4485ZM27.3997 15.3935C27.3997 12.2055 25.2863 9.51487 22.3873 8.6391L21.5776 11.3195C23.3277 11.8482 24.5997 13.4741 24.5997 15.3935H27.3997ZM17.8755 8.15C19.2045 8.15 20.3223 9.06908 20.6216 10.308L23.3433 9.65053C22.7474 7.18367 20.5273 5.35 17.8755 5.35V8.15ZM16.8325 8.34839C17.1533 8.22082 17.5044 8.15 17.8755 8.15V5.35C17.1443 5.35 16.4425 5.49022 15.7979 5.74652L16.8325 8.34839ZM17.5818 6.45103C16.3723 3.88256 13.7585 2.1 10.7255 2.1V4.9C12.6339 4.9 14.2837 6.01956 15.0486 7.64389L17.5818 6.45103ZM10.7255 2.1C7.04515 2.1 3.98059 4.72322 3.29403 8.20126L6.04103 8.74351C6.47359 6.55218 8.40814 4.9 10.7255 4.9V2.1ZM4.28782 7.12486C1.00717 8.0493 -1.39951 11.0627 -1.39951 14.6418H1.40049C1.40049 12.3493 2.94172 10.4132 5.04724 9.81991L4.28782 7.12486ZM-1.39951 14.6418C-1.39951 18.9546 2.0967 22.4508 6.40949 22.4508V19.6508C3.6431 19.6508 1.40049 17.4082 1.40049 14.6418H-1.39951ZM6.40949 22.4508H11.8618V19.6508H6.40949V22.4508ZM11.8618 22.4508C12.1884 22.4508 12.5109 22.4307 12.8281 22.3915L12.4845 19.6126C12.281 19.6378 12.0732 19.6508 11.8618 19.6508V22.4508ZM12.4778 22.3906C12.7752 22.4288 13.0779 22.4485 13.3844 22.4485V19.6485C13.1975 19.6485 13.0141 19.6365 12.8348 19.6135L12.4778 22.3906ZM13.3844 22.4485H17.761V19.6485H13.3844V22.4485ZM17.8755 19.65C17.8496 19.65 17.8238 19.6497 17.7982 19.649L17.7237 22.448C17.7742 22.4493 17.8248 22.45 17.8755 22.45V19.65ZM17.9528 19.649C17.9271 19.6497 17.9014 19.65 17.8755 19.65V22.45C17.9262 22.45 17.9768 22.4493 18.0273 22.448L17.9528 19.649Z" fill="white" mask="url(#path-1-inside-1_811_9922)"/>
</svg>
