<svg width="26" height="26" viewBox="0 0 26 26" fill="none" xmlns="http://www.w3.org/2000/svg">
<path fill-rule="evenodd" clip-rule="evenodd" d="M12.3173 21.6758V24.5594H13.7173V21.6953L16.4242 23.1528L17.0879 21.9202L13.7173 20.1052V14.2005L18.7948 17.132L18.68 20.9997L20.0794 21.0413L20.1718 17.9271L22.6694 19.369L23.3694 18.1566L20.8888 16.7244L23.5044 15.1091L22.7687 13.918L19.5118 15.9294L14.3991 12.9776L19.4773 10.0457L22.7691 12.0788L23.5048 10.8876L20.8543 9.2507L23.3517 7.80882L22.6517 6.59638L20.171 8.02862L20.0798 4.95546L18.6804 4.99697L18.794 8.82365L13.7173 11.7547V5.89478L17.0879 4.07984L16.4242 2.84718L13.7173 4.30472V1.44061H12.3173V4.32417L9.57429 2.84718L8.91055 4.07984L12.3173 5.91423V11.7757L7.20543 8.82433L7.31895 4.99779L5.91956 4.95627L5.8284 8.0293L3.34791 6.5972L2.64791 7.80963L5.14521 9.25145L2.49463 10.8884L3.23027 12.0796L6.52224 10.0465L11.5991 12.9776L6.4877 15.9287L3.23066 13.9171L2.49502 15.1083L5.11067 16.7237L2.63024 18.1558L3.33024 19.3682L5.82757 17.9264L5.91995 21.0404L7.31934 20.9989L7.2046 17.1313L12.3173 14.1795V20.0858L8.91055 21.9202L9.57429 23.1528L12.3173 21.6758Z" fill="#949494"/>
</svg>
