<svg width="26" height="26" viewBox="0 0 26 26" fill="none" xmlns="http://www.w3.org/2000/svg">
<path fill-rule="evenodd" clip-rule="evenodd" d="M12.3175 21.6758V24.5594H13.7175V21.6953L16.4244 23.1528L17.0881 21.9202L13.7175 20.1052V14.2005L18.795 17.132L18.6803 20.9997L20.0797 21.0413L20.1721 17.9271L22.6696 19.369L23.3696 18.1566L20.8891 16.7244L23.5046 15.1091L22.769 13.918L19.512 15.9294L14.3993 12.9776L19.4775 10.0457L22.7694 12.0788L23.505 10.8876L20.8545 9.2507L23.3519 7.80882L22.6519 6.59638L20.1712 8.02862L20.0801 4.95546L18.6807 4.99697L18.7942 8.82365L13.7175 11.7547V5.89478L17.0881 4.07984L16.4244 2.84718L13.7175 4.30472V1.44061H12.3175V4.32417L9.57453 2.84718L8.91079 4.07984L12.3175 5.91423V11.7757L7.20567 8.82433L7.31919 4.99779L5.91981 4.95627L5.82864 8.0293L3.34816 6.5972L2.64816 7.80963L5.14545 9.25145L2.49487 10.8884L3.23052 12.0796L6.52248 10.0465L11.5993 12.9776L6.48795 15.9287L3.23091 13.9171L2.49526 15.1083L5.11091 16.7237L2.63048 18.1558L3.33048 19.3682L5.82781 17.9264L5.9202 21.0404L7.31958 20.9989L7.20484 17.1313L12.3175 14.1795V20.0858L8.91079 21.9202L9.57453 23.1528L12.3175 21.6758Z" fill="black"/>
</svg>
