<svg width="26" height="26" viewBox="0 0 26 26" fill="none" xmlns="http://www.w3.org/2000/svg">
<path fill-rule="evenodd" clip-rule="evenodd" d="M12.3 21.4621V25.5H13.7V21.4621C13.4689 21.4801 13.2352 21.4893 12.9995 21.4893C12.7641 21.4893 12.5308 21.4801 12.3 21.4621ZM9.35685 20.7101L7.35622 24.1753L6.14378 23.4753L8.12955 20.0359C8.51845 20.2915 8.92863 20.5173 9.35685 20.7101ZM5.88084 17.9183C5.60191 17.5449 5.35169 17.1488 5.13342 16.7332L1.82424 18.6438L2.52424 19.8562L5.88084 17.9183ZM4.18623 13.7C4.14249 13.3427 4.11997 12.9789 4.11997 12.6098C4.11997 12.5061 4.12175 12.4028 4.12527 12.3H0.5V13.7H4.18623ZM4.84156 9.09776C5.02763 8.66613 5.24695 8.2522 5.4963 7.85919L2.52512 6.14378L1.82512 7.35622L4.84156 9.09776ZM7.80718 5.40581C8.18478 5.13318 8.58467 4.88951 9.00359 4.67804L7.35622 1.82471L6.14378 2.52471L7.80718 5.40581ZM12.3 3.75743C12.5308 3.73945 12.7641 3.73029 12.9995 3.73029C13.2352 3.73029 13.4689 3.73947 13.7 3.75751V0.5H12.3V3.75743ZM16.9962 4.67845C17.4151 4.88996 17.8149 5.13367 18.1925 5.40634L19.8562 2.52471L18.6438 1.82471L16.9962 4.67845ZM20.5029 7.85964C20.7523 8.25265 20.9716 8.6666 21.1576 9.09824L24.1749 7.35622L23.4749 6.14378L20.5029 7.85964ZM21.8737 12.3C21.8772 12.4028 21.879 12.5061 21.879 12.6098C21.879 12.9789 21.8565 13.3427 21.8127 13.7H25.5V12.3H21.8737ZM20.8658 16.7328C20.6475 17.1483 20.3973 17.5444 20.1184 17.9179L23.4758 19.8562L24.1758 18.6438L20.8658 16.7328ZM17.8702 20.0354C17.4813 20.291 17.0711 20.5169 16.6429 20.7098L18.6438 24.1753L19.8562 23.4753L17.8702 20.0354Z" fill="white"/>
</svg>
