<?xml version="1.0" encoding="utf-8"?><svg xmlns="http://www.w3.org/2000/svg" xmlns:xlink="http://www.w3.org/1999/xlink"><symbol fill="none" viewBox="0 0 12 8" id="chevronDown2" xmlns="http://www.w3.org/2000/svg"><path d="M6.735 6.705a1 1 0 0 1-1.47 0L.622 1.679C.031 1.039.485 0 1.357 0h9.286c.872 0 1.326 1.038.735 1.679L6.735 6.705Z" fill="#AEAEB0"/></symbol><symbol fill="none" viewBox="0 0 25 24" id="collection" xmlns="http://www.w3.org/2000/svg"><g clip-path="url(#ba)"><path d="M11.09 4.59C10.71 4.21 10.2 4 9.67 4H4.5c-1.1 0-1.99.9-1.99 2L2.5 18c0 1.1.9 2 2 2h16c1.1 0 2-.9 2-2V8c0-1.1-.9-2-2-2h-8l-1.41-1.41Z" fill="#F65221"/></g><defs><clipPath id="ba"><path fill="#fff" transform="translate(.5)" d="M0 0h24v24H0z"/></clipPath></defs></symbol><symbol fill="none" viewBox="0 0 26 26" id="musicLog" xmlns="http://www.w3.org/2000/svg"><g clip-path="url(#ca)" stroke="#777" stroke-width="1.4"><path d="M1.713 4.672H15.99M1.713 11.767H15.99M1.713 18.862h7.965"/><circle cx="17.023" cy="19.449" r="3.414"/><path d="M20.436 18.553V4.672h3.62" stroke-linecap="square"/></g><defs><clipPath id="ca"><path fill="#fff" d="M0 0h26v26H0z"/></clipPath></defs></symbol><symbol fill="none" viewBox="0 0 26 26" id="musicLounge" xmlns="http://www.w3.org/2000/svg"><circle cx="13" cy="13" r="11.05" stroke="#777" stroke-width="1.4"/><circle cx="13" cy="13" r="1.869" fill="#777"/><path fill-rule="evenodd" clip-rule="evenodd" d="M21.413 12.707a8.428 8.428 0 0 0-8.12-8.12v1.401a7.028 7.028 0 0 1 6.72 6.719h1.4Zm-3.163 0a5.268 5.268 0 0 0-4.957-4.956v1.403a3.868 3.868 0 0 1 3.553 3.553h1.404Z" fill="#777"/></symbol><symbol fill="none" viewBox="0 0 26 26" id="myPlaylist" xmlns="http://www.w3.org/2000/svg"><path d="M8.176 1.5v4.309M17.824 1.5v4.309" stroke="#fff" stroke-width="1.5"/><path stroke="#fff" stroke-width="1.4" d="M3.425 3.654h19.15v19.15H3.425zM3.425 10.038h19.15"/></symbol></svg>