<?xml version="1.0" encoding="utf-8"?><svg xmlns="http://www.w3.org/2000/svg" xmlns:xlink="http://www.w3.org/1999/xlink"><symbol fill="none" viewBox="0 0 12 8" id="chevronDown2" xmlns="http://www.w3.org/2000/svg"><path d="M6.735 6.705a1 1 0 0 1-1.47 0L.622 1.679C.031 1.039.485 0 1.357 0h9.286c.872 0 1.326 1.038.735 1.679L6.735 6.705Z" fill="#AEAEB0"/></symbol><symbol fill="none" viewBox="0 0 25 24" id="collection" xmlns="http://www.w3.org/2000/svg"><g clip-path="url(#ba)"><path d="M11.09 4.59C10.71 4.21 10.2 4 9.67 4H4.5c-1.1 0-1.99.9-1.99 2L2.5 18c0 1.1.9 2 2 2h16c1.1 0 2-.9 2-2V8c0-1.1-.9-2-2-2h-8l-1.41-1.41Z" fill="#F65221"/></g><defs><clipPath id="ba"><path fill="#fff" transform="translate(.5)" d="M0 0h24v24H0z"/></clipPath></defs></symbol></svg>