<svg width="26" height="27" viewBox="0 0 26 27" fill="none" xmlns="http://www.w3.org/2000/svg">
<path d="M5.34479 20.8138L4.97473 21.4079H4.97473L5.34479 20.8138ZM12.3644 20.769L12.7125 20.1617L12.4399 20.0054L12.1419 20.1053L12.3644 20.769ZM1.00012 9.9901L0.960819 9.2912L0.238313 9.33183L0.302917 10.0526L1.00012 9.9901ZM7.2713 10.3882L7.14342 11.0764L7.70898 11.1815L7.92169 10.647L7.2713 10.3882ZM13 2L13.5032 1.51331L13 0.993191L12.4969 1.51332L13 2ZM18.7289 10.3882L18.0785 10.6471L18.2912 11.1815L18.8568 11.0765L18.7289 10.3882ZM25.0002 9.99013L25.6974 10.0526L25.762 9.33186L25.0395 9.29123L25.0002 9.99013ZM20.6556 20.8138L20.2855 20.2196V20.2196L20.6556 20.8138ZM13.6358 20.7689L13.8582 20.1052L13.5603 20.0053L13.2876 20.1616L13.6358 20.7689ZM13 21.1137L12.6907 21.7416L13 21.894L13.3094 21.7416L13 21.1137ZM4.97473 21.4079C6.23811 22.1948 7.79785 22.3006 9.15629 22.18C10.5303 22.058 11.806 21.6944 12.5869 21.4327L12.1419 20.1053C11.4141 20.3492 10.2541 20.677 9.03249 20.7855C7.79533 20.8953 6.59961 20.7706 5.71485 20.2196L4.97473 21.4079ZM1.00012 9.9901C0.302917 10.0526 0.302932 10.0528 0.30295 10.053C0.30296 10.0531 0.302981 10.0533 0.303001 10.0535C0.30304 10.054 0.303092 10.0545 0.303156 10.0552C0.303284 10.0566 0.30346 10.0585 0.303685 10.061C0.304137 10.0658 0.304786 10.0728 0.305641 10.0817C0.307351 10.0995 0.309885 10.1253 0.313305 10.1586C0.320145 10.2253 0.330533 10.3221 0.344972 10.4453C0.373841 10.6917 0.418956 11.0443 0.484364 11.4737C0.61498 12.3311 0.827488 13.5009 1.15528 14.7455C1.48221 15.9867 1.92912 17.3229 2.53549 18.5033C3.13706 19.6744 3.92782 20.7559 4.97473 21.4079L5.71485 20.2196C4.97475 19.7586 4.32892 18.9307 3.7808 17.8637C3.23748 16.806 2.82161 15.5754 2.50911 14.3889C2.19749 13.2058 1.99396 12.0871 1.8684 11.2628C1.80571 10.8514 1.7627 10.5149 1.73546 10.2824C1.72185 10.1662 1.71219 10.0761 1.70599 10.0157C1.7029 9.98556 1.70067 9.96282 1.69924 9.94798C1.69853 9.94056 1.69802 9.93511 1.6977 9.93169C1.69754 9.92999 1.69743 9.92879 1.69737 9.9281C1.69734 9.92776 1.69732 9.92755 1.69731 9.92746C1.69731 9.92742 1.69731 9.92746 1.69731 9.92744C1.69732 9.9275 1.69733 9.9276 1.00012 9.9901ZM7.39917 9.69995C5.79826 9.40249 4.18996 9.30117 2.98888 9.2732C2.3866 9.25918 1.88271 9.26352 1.52822 9.27142C1.3509 9.27538 1.21074 9.28023 1.1141 9.28413C1.06577 9.28609 1.02831 9.28781 1.0025 9.28906C0.989597 9.28969 0.979606 9.2902 0.972627 9.29056C0.969137 9.29075 0.9664 9.29089 0.964427 9.291C0.963441 9.29106 0.962647 9.2911 0.962045 9.29113C0.961744 9.29115 0.961491 9.29116 0.961286 9.29117C0.961184 9.29118 0.961067 9.29119 0.961016 9.29119C0.960911 9.2912 0.960819 9.2912 1.00012 9.9901C1.03943 10.689 1.03936 10.689 1.0393 10.689C1.0393 10.689 1.03925 10.689 1.03925 10.689C1.03924 10.689 1.03927 10.689 1.03936 10.689C1.03953 10.689 1.03989 10.689 1.04043 10.6889C1.04153 10.6889 1.04339 10.6888 1.04599 10.6886C1.0512 10.6884 1.05938 10.6879 1.07045 10.6874C1.09258 10.6863 1.12625 10.6848 1.17064 10.683C1.25945 10.6794 1.39114 10.6748 1.55942 10.6711C1.89614 10.6636 2.37849 10.6594 2.95629 10.6728C4.11539 10.6998 5.64267 10.7975 7.14342 11.0764L7.39917 9.69995ZM7.92169 10.647C8.7191 8.64329 10.1042 6.60746 11.3134 5.0528C11.9143 4.28023 12.4642 3.63609 12.8633 3.18575C13.0627 2.96072 13.2241 2.78446 13.335 2.66515C13.3904 2.6055 13.4332 2.56012 13.4618 2.53003C13.4761 2.51499 13.4868 2.50376 13.4937 2.4965C13.4972 2.49286 13.4998 2.49022 13.5013 2.48858C13.5021 2.48776 13.5027 2.48719 13.503 2.48687C13.5031 2.48671 13.5032 2.48662 13.5033 2.48659C13.5033 2.48657 13.5033 2.4866 13.5033 2.48659C13.5032 2.48663 13.5032 2.48668 13 2C12.4969 1.51332 12.4968 1.5134 12.4967 1.51351C12.4967 1.51356 12.4966 1.51368 12.4964 1.5138C12.4962 1.51402 12.4959 1.51431 12.4956 1.51466C12.4949 1.51537 12.494 1.51633 12.4928 1.51754C12.4905 1.51997 12.4872 1.52341 12.4829 1.52785C12.4744 1.53672 12.4621 1.54959 12.4463 1.56632C12.4145 1.59978 12.3684 1.64869 12.3095 1.71204C12.1918 1.83871 12.0229 2.0232 11.8155 2.25726C11.4009 2.72509 10.8312 3.39246 10.2084 4.19326C8.97005 5.78531 7.49078 7.94356 6.62091 10.1293L7.92169 10.647ZM13 2C12.4969 2.48669 12.4969 2.48663 12.4968 2.48659C12.4968 2.4866 12.4968 2.48657 12.4968 2.48659C12.4968 2.48662 12.4969 2.48672 12.4971 2.48687C12.4974 2.48719 12.4979 2.48776 12.4987 2.48858C12.5003 2.49022 12.5029 2.49287 12.5063 2.4965C12.5133 2.50377 12.524 2.51499 12.5383 2.53003C12.5669 2.56013 12.6096 2.60551 12.6651 2.66515C12.776 2.78446 12.9374 2.96073 13.1368 3.18576C13.5359 3.63611 14.0858 4.28025 14.6867 5.05282C15.8959 6.6075 17.2811 8.64335 18.0785 10.6471L19.3793 10.1294C18.5094 7.94361 17.0301 5.78534 15.7918 4.19328C15.1689 3.39248 14.5992 2.7251 14.1846 2.25726C13.9772 2.0232 13.8083 1.83871 13.6905 1.71204C13.6317 1.64869 13.5856 1.59978 13.5538 1.56632C13.5379 1.54959 13.5256 1.53672 13.5171 1.52784C13.5129 1.52341 13.5096 1.51997 13.5072 1.51754C13.5061 1.51632 13.5051 1.51536 13.5045 1.51466C13.5041 1.51431 13.5038 1.51402 13.5036 1.51379C13.5035 1.51368 13.5034 1.51356 13.5034 1.51351C13.5032 1.5134 13.5032 1.51331 13 2ZM25.0002 9.99013C25.0395 9.29123 25.0394 9.29123 25.0393 9.29122C25.0393 9.29122 25.0392 9.29121 25.0391 9.29121C25.0389 9.29119 25.0386 9.29118 25.0383 9.29116C25.0377 9.29113 25.0369 9.29109 25.0359 9.29103C25.034 9.29093 25.0312 9.29078 25.0277 9.2906C25.0208 9.29023 25.0108 9.28972 24.9979 9.28909C24.972 9.28784 24.9346 9.28612 24.8863 9.28417C24.7896 9.28026 24.6494 9.27541 24.4721 9.27146C24.1176 9.26355 23.6137 9.25921 23.0114 9.27324C21.8103 9.30121 20.2019 9.40253 18.601 9.70002L18.8568 11.0765C20.3575 10.7976 21.8849 10.6999 23.044 10.6729C23.6218 10.6594 24.1042 10.6636 24.4409 10.6711C24.6092 10.6749 24.7409 10.6794 24.8297 10.683C24.8741 10.6848 24.9078 10.6864 24.9299 10.6874C24.941 10.688 24.9492 10.6884 24.9544 10.6887C24.957 10.6888 24.9588 10.6889 24.9599 10.689C24.9605 10.689 24.9608 10.689 24.961 10.689C24.9611 10.689 24.9611 10.689 24.9611 10.689C24.9611 10.689 24.9611 10.689 24.9611 10.689C24.961 10.689 24.9609 10.689 25.0002 9.99013ZM21.0256 21.408C22.0725 20.756 22.8633 19.6745 23.4649 18.5034C24.0712 17.3229 24.5182 15.9868 24.8451 14.7455C25.1729 13.501 25.3854 12.3311 25.516 11.4737C25.5814 11.0444 25.6265 10.6918 25.6554 10.4454C25.6698 10.3221 25.6802 10.2253 25.6871 10.1587C25.6905 10.1253 25.693 10.0995 25.6947 10.0817C25.6956 10.0728 25.6962 10.0659 25.6967 10.061C25.6969 10.0586 25.6971 10.0567 25.6972 10.0553C25.6973 10.0546 25.6973 10.054 25.6974 10.0535C25.6974 10.0533 25.6974 10.0531 25.6974 10.053C25.6974 10.0528 25.6974 10.0526 25.0002 9.99013C24.303 9.92763 24.303 9.92754 24.303 9.92747C24.303 9.92749 24.303 9.92745 24.303 9.9275C24.303 9.92758 24.303 9.92779 24.303 9.92813C24.3029 9.92882 24.3028 9.93002 24.3027 9.93173C24.3023 9.93514 24.3018 9.94059 24.3011 9.94801C24.2997 9.96286 24.2975 9.9856 24.2944 10.0158C24.2882 10.0762 24.2785 10.1663 24.2649 10.2825C24.2377 10.5149 24.1946 10.8514 24.132 11.2629C24.0064 12.0871 23.8029 13.2058 23.4912 14.389C23.1788 15.5754 22.7629 16.806 22.2196 17.8637C21.6714 18.9307 21.0256 19.7587 20.2855 20.2196L21.0256 21.408ZM13.4133 21.4326C14.1941 21.6944 15.4698 22.058 16.8439 22.18C18.2024 22.3006 19.7622 22.1949 21.0256 21.408L20.2855 20.2196C19.4007 20.7707 18.2049 20.8953 16.9677 20.7855C15.746 20.677 14.586 20.3492 13.8582 20.1052L13.4133 21.4326ZM13.2876 20.1616C13.0991 20.2697 12.9472 20.352 12.8437 20.4068C12.792 20.4341 12.7523 20.4545 12.7263 20.4678C12.7133 20.4744 12.7037 20.4792 12.6977 20.4823C12.6947 20.4838 12.6926 20.4848 12.6915 20.4854C12.6909 20.4857 12.6905 20.4859 12.6904 20.4859C12.6903 20.486 12.6903 20.486 12.6904 20.4859C12.6904 20.4859 12.6904 20.4859 12.6905 20.4859C12.6905 20.4859 12.6905 20.4858 12.6906 20.4858C12.6906 20.4858 12.6906 20.4858 12.6906 20.4858C12.6907 20.4858 12.6907 20.4858 13 21.1137C13.3094 21.7416 13.3094 21.7416 13.3094 21.7416C13.3095 21.7416 13.3095 21.7416 13.3095 21.7416C13.3096 21.7416 13.3096 21.7415 13.3097 21.7415C13.3098 21.7414 13.3099 21.7414 13.3101 21.7413C13.3104 21.7412 13.3107 21.741 13.3111 21.7408C13.3119 21.7404 13.313 21.7399 13.3143 21.7392C13.3169 21.7379 13.3204 21.7362 13.3248 21.734C13.3336 21.7295 13.3461 21.7232 13.3621 21.7151C13.394 21.6989 13.4398 21.6752 13.4979 21.6445C13.6142 21.583 13.7802 21.493 13.9839 21.3762L13.2876 20.1616ZM13 21.1137C13.3094 20.4858 13.3094 20.4858 13.3094 20.4858C13.3095 20.4858 13.3095 20.4858 13.3095 20.4858C13.3095 20.4858 13.3096 20.4859 13.3096 20.4859C13.3097 20.4859 13.3097 20.4859 13.3097 20.4859C13.3098 20.486 13.3098 20.486 13.3097 20.4859C13.3096 20.4859 13.3092 20.4857 13.3086 20.4854C13.3074 20.4848 13.3053 20.4838 13.3023 20.4823C13.2963 20.4792 13.2867 20.4744 13.2737 20.4678C13.2477 20.4545 13.2081 20.4341 13.1564 20.4068C13.0529 20.3521 12.901 20.2697 12.7125 20.1617L12.0163 21.3763C12.2199 21.493 12.3859 21.583 12.5022 21.6445C12.5603 21.6752 12.6061 21.6989 12.638 21.7151C12.6539 21.7232 12.6664 21.7295 12.6753 21.734C12.6797 21.7362 12.6832 21.7379 12.6858 21.7392C12.6871 21.7399 12.6881 21.7404 12.689 21.7408C12.6894 21.741 12.6897 21.7412 12.69 21.7413C12.6901 21.7414 12.6903 21.7414 12.6904 21.7415C12.6904 21.7415 12.6905 21.7416 12.6906 21.7416C12.6906 21.7416 12.6906 21.7416 12.6906 21.7416C12.6907 21.7416 12.6907 21.7416 13 21.1137Z" fill="#949494"/>
<path d="M13.0001 9L13.0004 27" stroke="#949494" stroke-width="1.4"/>
<path d="M6.00012 14L12.8337 18.6231" stroke="#949494" stroke-width="1.4"/>
<path d="M20.0001 14L13.1666 18.6231" stroke="#949494" stroke-width="1.4"/>
</svg>
