<svg width="26" height="27" viewBox="0 0 26 27" fill="none" xmlns="http://www.w3.org/2000/svg">
<path d="M5.34467 20.8138L4.97461 21.4079H4.97461L5.34467 20.8138ZM12.3643 20.769L12.7124 20.1617L12.4398 20.0054L12.1418 20.1053L12.3643 20.769ZM1 9.9901L0.960696 9.2912L0.238191 9.33183L0.302795 10.0526L1 9.9901ZM7.27118 10.3882L7.1433 11.0764L7.70886 11.1815L7.92156 10.647L7.27118 10.3882ZM12.9999 2L13.503 1.51331L12.9999 0.993191L12.4968 1.51332L12.9999 2ZM18.7288 10.3882L18.0784 10.6471L18.2911 11.1815L18.8566 11.0765L18.7288 10.3882ZM25.0001 9.99013L25.6973 10.0526L25.7619 9.33186L25.0394 9.29123L25.0001 9.99013ZM20.6554 20.8138L20.2854 20.2196V20.2196L20.6554 20.8138ZM13.6356 20.7689L13.8581 20.1052L13.5602 20.0053L13.2875 20.1616L13.6356 20.7689ZM12.9999 21.1137L12.6906 21.7416L12.9999 21.894L13.3093 21.7416L12.9999 21.1137ZM4.97461 21.4079C6.23799 22.1948 7.79773 22.3006 9.15617 22.18C10.5302 22.058 11.8059 21.6944 12.5868 21.4327L12.1418 20.1053C11.4139 20.3492 10.254 20.677 9.03237 20.7855C7.79521 20.8953 6.59949 20.7706 5.71473 20.2196L4.97461 21.4079ZM1 9.9901C0.302795 10.0526 0.30281 10.0528 0.302828 10.053C0.302838 10.0531 0.302859 10.0533 0.302878 10.0535C0.302918 10.054 0.30297 10.0545 0.303034 10.0552C0.303161 10.0566 0.303338 10.0585 0.303563 10.061C0.304015 10.0658 0.304664 10.0728 0.305519 10.0817C0.307229 10.0995 0.309763 10.1253 0.313183 10.1586C0.320023 10.2253 0.330411 10.3221 0.34485 10.4453C0.373719 10.6917 0.418834 11.0443 0.484242 11.4737C0.614858 12.3311 0.827366 13.5009 1.15516 14.7455C1.48208 15.9867 1.929 17.3229 2.53537 18.5033C3.13694 19.6744 3.9277 20.7559 4.97461 21.4079L5.71473 20.2196C4.97463 19.7586 4.3288 18.9307 3.78068 17.8637C3.23736 16.806 2.82148 15.5754 2.50899 14.3889C2.19737 13.2058 1.99384 12.0871 1.86827 11.2628C1.80559 10.8514 1.76258 10.5149 1.73534 10.2824C1.72173 10.1662 1.71207 10.0761 1.70587 10.0157C1.70277 9.98556 1.70054 9.96282 1.69912 9.94798C1.69841 9.94056 1.6979 9.93511 1.69758 9.93169C1.69742 9.92999 1.69731 9.92879 1.69725 9.9281C1.69722 9.92776 1.6972 9.92755 1.69719 9.92746C1.69719 9.92742 1.69719 9.92746 1.69719 9.92744C1.6972 9.9275 1.6972 9.9276 1 9.9901ZM7.39905 9.69995C5.79814 9.40249 4.18983 9.30117 2.98876 9.2732C2.38647 9.25918 1.88259 9.26352 1.5281 9.27142C1.35077 9.27538 1.21062 9.28023 1.11397 9.28413C1.06565 9.28609 1.02819 9.28781 1.00238 9.28906C0.989475 9.28969 0.979484 9.2902 0.972504 9.29056C0.969015 9.29075 0.966277 9.29089 0.964305 9.291C0.963319 9.29106 0.962525 9.2911 0.961923 9.29113C0.961622 9.29115 0.961369 9.29116 0.961164 9.29117C0.961062 9.29118 0.960945 9.29119 0.960894 9.29119C0.960789 9.2912 0.960696 9.2912 1 9.9901C1.0393 10.689 1.03923 10.689 1.03918 10.689C1.03918 10.689 1.03913 10.689 1.03913 10.689C1.03911 10.689 1.03915 10.689 1.03924 10.689C1.0394 10.689 1.03976 10.689 1.04031 10.6889C1.04141 10.6889 1.04327 10.6888 1.04587 10.6886C1.05107 10.6884 1.05926 10.6879 1.07033 10.6874C1.09246 10.6863 1.12612 10.6848 1.17052 10.683C1.25933 10.6794 1.39102 10.6748 1.5593 10.6711C1.89602 10.6636 2.37837 10.6594 2.95617 10.6728C4.11527 10.6998 5.64255 10.7975 7.1433 11.0764L7.39905 9.69995ZM7.92156 10.647C8.71898 8.64329 10.1041 6.60746 11.3133 5.0528C11.9142 4.28023 12.4641 3.63609 12.8632 3.18575C13.0626 2.96072 13.224 2.78446 13.3349 2.66515C13.3903 2.6055 13.4331 2.56012 13.4617 2.53003C13.4759 2.51499 13.4867 2.50376 13.4936 2.4965C13.4971 2.49286 13.4996 2.49022 13.5012 2.48858C13.502 2.48776 13.5026 2.48719 13.5029 2.48687C13.503 2.48671 13.5031 2.48662 13.5031 2.48659C13.5032 2.48657 13.5031 2.4866 13.5031 2.48659C13.5031 2.48663 13.503 2.48668 12.9999 2C12.4968 1.51332 12.4967 1.5134 12.4966 1.51351C12.4965 1.51356 12.4964 1.51368 12.4963 1.5138C12.4961 1.51402 12.4958 1.51431 12.4955 1.51466C12.4948 1.51537 12.4939 1.51633 12.4927 1.51754C12.4904 1.51997 12.4871 1.52341 12.4828 1.52785C12.4743 1.53672 12.462 1.54959 12.4461 1.56632C12.4144 1.59978 12.3683 1.64869 12.3094 1.71204C12.1917 1.83871 12.0228 2.0232 11.8154 2.25726C11.4008 2.72509 10.8311 3.39246 10.2082 4.19326C8.96993 5.78531 7.49066 7.94356 6.62079 10.1293L7.92156 10.647ZM12.9999 2C12.4968 2.48669 12.4967 2.48663 12.4967 2.48659C12.4967 2.4866 12.4967 2.48657 12.4967 2.48659C12.4967 2.48662 12.4968 2.48672 12.497 2.48687C12.4973 2.48719 12.4978 2.48776 12.4986 2.48858C12.5002 2.49022 12.5027 2.49287 12.5062 2.4965C12.5132 2.50377 12.5239 2.51499 12.5382 2.53003C12.5667 2.56013 12.6095 2.60551 12.665 2.66515C12.7759 2.78446 12.9373 2.96073 13.1367 3.18576C13.5358 3.63611 14.0856 4.28025 14.6866 5.05282C15.8958 6.6075 17.2809 8.64335 18.0784 10.6471L19.3791 10.1294C18.5093 7.94361 17.03 5.78534 15.7916 4.19328C15.1688 3.39248 14.5991 2.7251 14.1845 2.25726C13.9771 2.0232 13.8082 1.83871 13.6904 1.71204C13.6315 1.64869 13.5854 1.59978 13.5537 1.56632C13.5378 1.54959 13.5255 1.53672 13.517 1.52784C13.5128 1.52341 13.5095 1.51997 13.5071 1.51754C13.5059 1.51632 13.505 1.51536 13.5043 1.51466C13.504 1.51431 13.5037 1.51402 13.5035 1.51379C13.5034 1.51368 13.5033 1.51356 13.5032 1.51351C13.5031 1.5134 13.503 1.51331 12.9999 2ZM25.0001 9.99013C25.0394 9.29123 25.0393 9.29123 25.0392 9.29122C25.0392 9.29122 25.0391 9.29121 25.0389 9.29121C25.0387 9.29119 25.0385 9.29118 25.0382 9.29116C25.0376 9.29113 25.0368 9.29109 25.0358 9.29103C25.0338 9.29093 25.0311 9.29078 25.0276 9.2906C25.0206 9.29023 25.0106 9.28972 24.9977 9.28909C24.9719 9.28784 24.9345 9.28612 24.8861 9.28417C24.7895 9.28026 24.6493 9.27541 24.472 9.27146C24.1175 9.26355 23.6136 9.25921 23.0113 9.27324C21.8102 9.30121 20.2018 9.40253 18.6009 9.70002L18.8566 11.0765C20.3574 10.7976 21.8847 10.6999 23.0439 10.6729C23.6217 10.6594 24.1041 10.6636 24.4408 10.6711C24.6091 10.6749 24.7408 10.6794 24.8296 10.683C24.874 10.6848 24.9076 10.6864 24.9298 10.6874C24.9409 10.688 24.949 10.6884 24.9542 10.6887C24.9568 10.6888 24.9587 10.6889 24.9598 10.689C24.9604 10.689 24.9607 10.689 24.9609 10.689C24.961 10.689 24.961 10.689 24.961 10.689C24.961 10.689 24.9609 10.689 24.9609 10.689C24.9609 10.689 24.9608 10.689 25.0001 9.99013ZM21.0255 21.408C22.0724 20.756 22.8632 19.6745 23.4647 18.5034C24.0711 17.3229 24.518 15.9868 24.845 14.7455C25.1727 13.501 25.3853 12.3311 25.5159 11.4737C25.5813 11.0444 25.6264 10.6918 25.6553 10.4454C25.6697 10.3221 25.6801 10.2253 25.6869 10.1587C25.6904 10.1253 25.6929 10.0995 25.6946 10.0817C25.6954 10.0728 25.6961 10.0659 25.6966 10.061C25.6968 10.0586 25.697 10.0567 25.6971 10.0553C25.6971 10.0546 25.6972 10.054 25.6972 10.0535C25.6973 10.0533 25.6973 10.0531 25.6973 10.053C25.6973 10.0528 25.6973 10.0526 25.0001 9.99013C24.3029 9.92763 24.3029 9.92754 24.3029 9.92747C24.3029 9.92749 24.3029 9.92745 24.3029 9.9275C24.3029 9.92758 24.3029 9.92779 24.3029 9.92813C24.3028 9.92882 24.3027 9.93002 24.3025 9.93173C24.3022 9.93514 24.3017 9.94059 24.301 9.94801C24.2996 9.96286 24.2973 9.9856 24.2942 10.0158C24.288 10.0762 24.2784 10.1663 24.2648 10.2825C24.2375 10.5149 24.1945 10.8514 24.1318 11.2629C24.0063 12.0871 23.8027 13.2058 23.4911 14.389C23.1786 15.5754 22.7628 16.806 22.2194 17.8637C21.6713 18.9307 21.0255 19.7587 20.2854 20.2196L21.0255 21.408ZM13.4131 21.4326C14.1939 21.6944 15.4697 22.058 16.8438 22.18C18.2022 22.3006 19.7621 22.1949 21.0255 21.408L20.2854 20.2196C19.4006 20.7707 18.2048 20.8953 16.9676 20.7855C15.7459 20.677 14.5859 20.3492 13.8581 20.1052L13.4131 21.4326ZM13.2875 20.1616C13.099 20.2697 12.9471 20.352 12.8436 20.4068C12.7918 20.4341 12.7522 20.4545 12.7262 20.4678C12.7132 20.4744 12.7036 20.4792 12.6976 20.4823C12.6946 20.4838 12.6925 20.4848 12.6913 20.4854C12.6907 20.4857 12.6904 20.4859 12.6903 20.4859C12.6902 20.486 12.6902 20.486 12.6902 20.4859C12.6903 20.4859 12.6903 20.4859 12.6904 20.4859C12.6904 20.4859 12.6904 20.4858 12.6905 20.4858C12.6905 20.4858 12.6905 20.4858 12.6905 20.4858C12.6905 20.4858 12.6906 20.4858 12.9999 21.1137C13.3093 21.7416 13.3093 21.7416 13.3093 21.7416C13.3093 21.7416 13.3094 21.7416 13.3094 21.7416C13.3094 21.7416 13.3095 21.7415 13.3096 21.7415C13.3097 21.7414 13.3098 21.7414 13.3099 21.7413C13.3102 21.7412 13.3106 21.741 13.311 21.7408C13.3118 21.7404 13.3129 21.7399 13.3142 21.7392C13.3167 21.7379 13.3202 21.7362 13.3247 21.734C13.3335 21.7295 13.346 21.7232 13.362 21.7151C13.3939 21.6989 13.4397 21.6752 13.4978 21.6445C13.6141 21.583 13.7801 21.493 13.9838 21.3762L13.2875 20.1616ZM12.9999 21.1137C13.3093 20.4858 13.3093 20.4858 13.3093 20.4858C13.3093 20.4858 13.3094 20.4858 13.3094 20.4858C13.3094 20.4858 13.3094 20.4859 13.3095 20.4859C13.3095 20.4859 13.3096 20.4859 13.3096 20.4859C13.3097 20.486 13.3096 20.486 13.3096 20.4859C13.3095 20.4859 13.3091 20.4857 13.3085 20.4854C13.3073 20.4848 13.3052 20.4838 13.3022 20.4823C13.2962 20.4792 13.2866 20.4744 13.2736 20.4678C13.2476 20.4545 13.208 20.4341 13.1563 20.4068C13.0528 20.3521 12.9009 20.2697 12.7124 20.1617L12.0162 21.3763C12.2198 21.493 12.3858 21.583 12.502 21.6445C12.5602 21.6752 12.606 21.6989 12.6379 21.7151C12.6538 21.7232 12.6663 21.7295 12.6752 21.734C12.6796 21.7362 12.6831 21.7379 12.6857 21.7392C12.687 21.7399 12.688 21.7404 12.6888 21.7408C12.6892 21.741 12.6896 21.7412 12.6899 21.7413C12.69 21.7414 12.6902 21.7414 12.6903 21.7415C12.6903 21.7415 12.6904 21.7416 12.6904 21.7416C12.6905 21.7416 12.6905 21.7416 12.6905 21.7416C12.6905 21.7416 12.6906 21.7416 12.9999 21.1137Z" fill="black"/>
<path d="M13 9L13.0002 27" stroke="black" stroke-width="1.4"/>
<path d="M6 14L12.8336 18.6231" stroke="black" stroke-width="1.4"/>
<path d="M20 14L13.1664 18.6231" stroke="black" stroke-width="1.4"/>
</svg>
