<svg width="26" height="26" viewBox="0 0 26 26" fill="none" xmlns="http://www.w3.org/2000/svg">
<mask id="path-1-inside-1_389_15132" fill="white">
<path fill-rule="evenodd" clip-rule="evenodd" d="M7.96678 4.40219C8.26221 1.9226 10.3723 0 12.9314 0C15.4902 0 17.6001 1.92209 17.8959 4.40121C20.1908 3.41791 22.9103 4.28406 24.1897 6.50002C25.4694 8.71642 24.8592 11.5053 22.8592 13.0009C24.8574 14.4969 25.4665 17.2845 24.1874 19.5C22.9084 21.7153 20.1903 22.5816 17.8958 21.5998C17.5995 24.0784 15.4899 26 12.9314 26C10.3726 26 8.26277 24.0779 7.9669 21.5988C5.67197 22.5821 2.95245 21.716 1.67305 19.5C0.393903 17.2845 1.00307 14.4969 3.00118 13.0009C1.0012 11.5053 0.391065 8.71642 1.67071 6.50001C2.95052 4.28331 5.67139 3.41733 7.96678 4.40219Z"/>
</mask>
<path d="M7.96678 4.40219L7.41476 5.68876L9.13543 6.42703L9.35695 4.56782L7.96678 4.40219ZM17.8959 4.40121L16.5058 4.56712L16.7275 6.42495L18.4473 5.68806L17.8959 4.40121ZM24.1897 6.50002L22.9773 7.20002V7.20002L24.1897 6.50002ZM22.8592 13.0009L22.0208 11.8797L20.5224 13.0002L22.0202 14.1216L22.8592 13.0009ZM24.1874 19.5L25.3998 20.2L24.1874 19.5ZM17.8958 21.5998L18.4466 20.3127L16.7276 19.5771L16.5057 21.4336L17.8958 21.5998ZM7.9669 21.5988L9.35703 21.4329L9.1353 19.575L7.4155 20.312L7.9669 21.5988ZM1.67305 19.5L0.460611 20.2L0.460612 20.2L1.67305 19.5ZM3.00118 13.0009L3.84026 14.1216L5.33801 13.0002L3.8396 11.8797L3.00118 13.0009ZM1.67071 6.50001L0.458273 5.80001L1.67071 6.50001ZM12.9314 -1.4C9.65472 -1.4 6.95494 1.06122 6.57661 4.23656L9.35695 4.56782C9.56949 2.78397 11.0899 1.4 12.9314 1.4V-1.4ZM19.2861 4.23531C18.9072 1.06057 16.2077 -1.4 12.9314 -1.4V1.4C14.7727 1.4 16.2929 2.78361 16.5058 4.56712L19.2861 4.23531ZM25.4021 5.80002C23.764 2.96271 20.2834 1.85516 17.3445 3.11436L18.4473 5.68806C20.0983 4.98066 22.0566 5.6054 22.9773 7.20002L25.4021 5.80002ZM23.6977 14.1221C26.2588 12.2069 27.0406 8.63789 25.4021 5.80002L22.9773 7.20002C23.8981 8.79495 23.4596 10.8038 22.0208 11.8797L23.6977 14.1221ZM22.0202 14.1216C23.4576 15.1978 23.8954 17.2057 22.9749 18.8L25.3998 20.2C27.0376 17.3632 26.2571 13.796 23.6983 11.8802L22.0202 14.1216ZM22.9749 18.8C22.0546 20.3941 20.0972 21.019 18.4466 20.3127L17.3451 22.8869C20.2833 24.1442 23.7622 23.0364 25.3998 20.2L22.9749 18.8ZM12.9314 27.4C16.2072 27.4 18.9065 24.9401 19.2859 21.7659L16.5057 21.4336C16.2925 23.2168 14.7725 24.6 12.9314 24.6V27.4ZM6.57676 21.7647C6.95565 24.9394 9.65515 27.4 12.9314 27.4V24.6C11.0901 24.6 9.56989 23.2164 9.35703 21.4329L6.57676 21.7647ZM0.460612 20.2C2.09875 23.0374 5.57944 24.1449 8.51829 22.8856L7.4155 20.312C5.7645 21.0194 3.80614 20.3946 2.88548 18.8L0.460612 20.2ZM2.16211 11.8802C-0.396652 13.796 -1.1772 17.3632 0.460611 20.2L2.88548 18.8C1.96501 17.2057 2.40279 15.1978 3.84026 14.1216L2.16211 11.8802ZM3.8396 11.8797C2.40079 10.8038 1.96231 8.79495 2.88314 7.20001L0.458273 5.80001C-1.18018 8.63789 -0.398386 12.2069 2.16277 14.1221L3.8396 11.8797ZM2.88314 7.20001C3.8041 5.60486 5.76343 4.98024 7.41476 5.68876L8.5188 3.11561C5.57935 1.85441 2.09694 2.96176 0.458273 5.80001L2.88314 7.20001Z" fill="black" mask="url(#path-1-inside-1_389_15132)"/>
<circle cx="12.9292" cy="13" r="3.3" stroke="black" stroke-width="1.4"/>
</svg>
