<svg width="26" height="26" viewBox="0 0 26 26" fill="none" xmlns="http://www.w3.org/2000/svg">
<path fill-rule="evenodd" clip-rule="evenodd" d="M12.3 21.4621V25.5H13.7V21.4621C13.4689 21.4801 13.2353 21.4893 12.9995 21.4893C12.7641 21.4893 12.5308 21.4801 12.3 21.4621ZM9.35686 20.7101L7.35622 24.1753L6.14378 23.4753L8.12955 20.0359C8.51845 20.2914 8.92863 20.5173 9.35686 20.7101ZM5.88085 17.9183C5.60193 17.5449 5.3517 17.1487 5.13343 16.7332L1.82424 18.6438L2.52424 19.8562L5.88085 17.9183ZM4.18626 13.7C4.14251 13.3427 4.12 12.9789 4.12 12.6098C4.12 12.5061 4.12177 12.4028 4.1253 12.3H0.5V13.7H4.18626ZM4.84158 9.09777C5.02765 8.66614 5.24697 8.25221 5.49632 7.8592L2.52512 6.14378L1.82512 7.35622L4.84158 9.09777ZM7.80719 5.40582C8.18479 5.13319 8.58467 4.88952 9.00359 4.67805L7.35622 1.82471L6.14378 2.52471L7.80719 5.40582ZM12.3 3.75743C12.5308 3.73945 12.7641 3.73029 12.9995 3.73029C13.2353 3.73029 13.4689 3.73947 13.7 3.75751V0.5H12.3V3.75743ZM16.9962 4.67844C17.4151 4.88995 17.8149 5.13366 18.1925 5.40633L19.8562 2.52471L18.6438 1.82471L16.9962 4.67844ZM20.5029 7.85963C20.7523 8.25264 20.9716 8.66659 21.1576 9.09823L24.1749 7.35622L23.4749 6.14378L20.5029 7.85963ZM21.8737 12.3C21.8772 12.4028 21.879 12.5061 21.879 12.6098C21.879 12.9789 21.8565 13.3427 21.8127 13.7H25.5V12.3H21.8737ZM20.8658 16.7328C20.6476 17.1483 20.3973 17.5444 20.1184 17.9179L23.4758 19.8562L24.1758 18.6438L20.8658 16.7328ZM17.8702 20.0354C17.4813 20.291 17.0711 20.5169 16.6429 20.7098L18.6438 24.1753L19.8562 23.4753L17.8702 20.0354Z" fill="black"/>
<circle cx="13" cy="12.5" r="8.5" stroke="black" stroke-width="1.4"/>
</svg>
