<svg width="26" height="27" viewBox="0 0 26 27" fill="none" xmlns="http://www.w3.org/2000/svg">
<path fill-rule="evenodd" clip-rule="evenodd" d="M12.3126 25.0594V22.1758L9.56965 23.6528L8.90591 22.4202L12.3126 20.5858V17.442C12.5344 17.4801 12.7625 17.5 12.9951 17.5C13.2401 17.5 13.4799 17.478 13.7126 17.4358V20.6052L17.0833 22.4202L16.4195 23.6528L13.7126 22.1953V25.0594H12.3126ZM16.0683 16.0606L18.7902 17.632L18.6754 21.4997L20.0748 21.5413L20.1672 18.4271L22.6647 19.869L23.3647 18.6566L20.8842 17.2244L23.4997 15.6091L22.7641 14.418L19.5072 16.4294L16.7633 14.8452C16.6036 15.2925 16.3666 15.703 16.0683 16.0606ZM16.7498 12.1177L19.4726 10.5457L22.7645 12.5788L23.5001 11.3876L20.8496 9.7507L23.3471 8.30882L22.6471 7.09638L20.1664 8.52862L20.0752 5.45546L18.6758 5.49697L18.7893 9.32365L16.0429 10.9093C16.3448 11.2641 16.5858 11.6723 16.7498 12.1177ZM13.7126 9.56418V6.39478L17.0833 4.57984L16.4195 3.34718L13.7126 4.80472V1.94061H12.3126V4.82417L9.56965 3.34718L8.90591 4.57984L12.3126 6.41423V9.55799C12.5344 9.51986 12.7625 9.5 12.9951 9.5C13.2401 9.5 13.4799 9.52202 13.7126 9.56418ZM9.94691 10.9098L7.20079 9.32433L7.31431 5.49779L5.91492 5.45627L5.82376 8.5293L3.34327 7.0972L2.64327 8.30963L5.14057 9.75145L2.48999 11.3884L3.22563 12.5796L6.5176 10.5465L9.24016 12.1183C9.40412 11.6729 9.64508 11.2647 9.94691 10.9098ZM9.22673 14.8446L6.48306 16.4287L3.22602 14.4171L2.49038 15.6083L5.10603 17.2237L2.6256 18.6558L3.3256 19.8682L5.82293 18.4264L5.91531 21.5404L7.3147 21.4989L7.19996 17.6313L9.92153 16.0601C9.62331 15.7024 9.38633 15.2919 9.22673 14.8446Z" fill="#949494"/>
<circle cx="13" cy="13.5" r="3.3" stroke="#949494" stroke-width="1.4"/>
</svg>
