<svg width="27" height="26" viewBox="0 0 27 26" fill="none" xmlns="http://www.w3.org/2000/svg">
<path fill-rule="evenodd" clip-rule="evenodd" d="M12.8126 24.5594V21.6758L10.0697 23.1528L9.40591 21.9202L12.8126 20.0858V16.942C13.0344 16.9801 13.2625 17 13.4951 17C13.7401 17 13.9799 16.978 14.2126 16.9358V20.1052L17.5833 21.9202L16.9195 23.1528L14.2126 21.6953V24.5594H12.8126ZM16.5683 15.5606L19.2902 17.132L19.1754 20.9997L20.5748 21.0413L20.6672 17.9271L23.1647 19.369L23.8647 18.1566L21.3842 16.7244L23.9997 15.1091L23.2641 13.918L20.0072 15.9294L17.2633 14.3452C17.1036 14.7925 16.8666 15.203 16.5683 15.5606ZM17.2498 11.6177L19.9726 10.0457L23.2645 12.0788L24.0001 10.8876L21.3496 9.2507L23.8471 7.80882L23.1471 6.59638L20.6664 8.02862L20.5752 4.95546L19.1758 4.99697L19.2893 8.82365L16.5429 10.4093C16.8448 10.7641 17.0858 11.1723 17.2498 11.6177ZM14.2126 9.06418V5.89478L17.5833 4.07984L16.9195 2.84718L14.2126 4.30472V1.44061H12.8126V4.32417L10.0697 2.84718L9.40591 4.07984L12.8126 5.91423V9.05799C13.0344 9.01986 13.2625 9 13.4951 9C13.7401 9 13.9799 9.02202 14.2126 9.06418ZM10.4469 10.4098L7.70079 8.82433L7.81431 4.99779L6.41492 4.95627L6.32376 8.0293L3.84327 6.5972L3.14327 7.80963L5.64057 9.25145L2.98999 10.8884L3.72563 12.0796L7.0176 10.0465L9.74016 11.6183C9.90412 11.1729 10.1451 10.7647 10.4469 10.4098ZM9.72673 14.3446L6.98306 15.9287L3.72602 13.9171L2.99038 15.1083L5.60603 16.7237L3.1256 18.1558L3.8256 19.3682L6.32293 17.9264L6.41531 21.0404L7.8147 20.9989L7.69996 17.1313L10.4215 15.5601C10.1233 15.2024 9.88633 14.7919 9.72673 14.3446Z" fill="black"/>
<circle cx="13.5" cy="13" r="3.3" stroke="black" stroke-width="1.4"/>
</svg>
